PathFileType	4	(X/Y/Z)	s02c0403.trc
DataRate	CameraRate	NumFrames	NumMarkers	Units	OrigDataRate	OrigDataStartFrame	OrigNumFrames
200	200	4	51	mm	200	0	2000
Frame#	Time	racr			lacr			c7			jug			rlel			rdr			llel			ldr			s2			lic			ric			lasi			rasi			rpsi			lpsi			rgt			lgt			rth1			rth2			rth3			rth4			rlfc			rmfc			rsh1			rsh2			rsh3			rsh4			rlmal			rmmal			rcal			rtoe			rmt5			rmt1			lth1			lth2			lth4			lth3			llfc			lmfc			lsh1			lsh2			lsh3			lsh4			llmal			lmmal			lcal			ltoe			lmt5			SBIKE			LBIKE			RBIKE			
		X1	Y1	Z1	X2	Y2	Z2	X3	Y3	Z3	X4	Y4	Z4	X5	Y5	Z5	X6	Y6	Z6	X7	Y7	Z7	X8	Y8	Z8	X9	Y9	Z9	X10	Y10	Z10	X11	Y11	Z11	X12	Y12	Z12	X13	Y13	Z13	X14	Y14	Z14	X15	Y15	Z15	X16	Y16	Z16	X17	Y17	Z17	X18	Y18	Z18	X19	Y19	Z19	X20	Y20	Z20	X21	Y21	Z21	X22	Y22	Z22	X23	Y23	Z23	X24	Y24	Z24	X25	Y25	Z25	X26	Y26	Z26	X27	Y27	Z27	X28	Y28	Z28	X29	Y29	Z29	X30	Y30	Z30	X31	Y31	Z31	X32	Y32	Z32	X33	Y33	Z33	X34	Y34	Z34	X35	Y35	Z35	X36	Y36	Z36	X37	Y37	Z37	X38	Y38	Z38	X39	Y39	Z39	X40	Y40	Z40	X41	Y41	Z41	X42	Y42	Z42	X43	Y43	Z43	X44	Y44	Z44	X45	Y45	Z45	X46	Y46	Z46	X47	Y47	Z47	X48	Y48	Z48	X49	Y49	Z49	X50	Y50	Z50	X51	Y51	Z51	
0	0.0000	459.992815	1317.147849	-153.137394	466.274811	1322.293422	-503.405769	455.313339	1376.400094	-335.221228	435.463336	1237.977074	-328.022909	584.414037	1072.235025	-137.910350	715.984174	886.314171	-139.858145	564.145311	1062.202725	-538.474773	699.452945	879.503376	-511.576091	-8.482816	1104.986840	-325.349119	129.595429	1091.583960	-468.869958	119.774674	1108.418813	-184.318887	180.723001	1061.233975	-442.550631	173.335503	1091.384388	-217.680074	4.739291	1125.761712	-290.001418	12.677794	1127.050697	-375.968310	101.899948	1032.816749	-140.205455	84.443304	998.814903	-498.630780	193.049758	1013.391376	-139.769600	280.009629	1004.260420	-151.381998	353.587660	965.889798	-129.036867	287.791419	1026.543572	-181.332885	476.229343	880.014556	-162.360482	468.473585	858.031870	-274.113585	457.730381	768.361229	-144.455344	438.987677	683.186887	-161.480671	385.196376	614.775178	-152.668274	450.771754	678.369553	-197.880778	324.095254	510.202732	-155.928330	331.609384	530.211091	-236.204722	248.003392	461.770264	-196.248695	533.425394	453.521284	-195.597298	425.746587	436.648329	-136.402177	451.150512	450.620850	-244.296207	188.916057	904.316808	-516.898982	256.469657	850.242249	-517.007279	284.371685	869.580067	-503.365700	286.819354	765.804921	-516.161918	341.085023	678.594859	-494.814879	349.625968	649.266623	-391.574007	291.753152	585.624178	-511.849171	262.967966	505.729145	-494.282771	194.425139	447.226423	-493.715354	282.543519	497.407795	-459.803979	125.069946	372.411620	-473.397402	143.215123	360.260025	-398.748938	48.484589	364.987843	-431.129169	264.528301	176.599519	-445.752811	165.322368	225.202820	-503.655781	-129.131407	869.438691	-314.141251	32.788321	82.331574	-515.337115	33.376372	81.716142	-115.059995	
1	0.0050	460.006779	1317.167464	-153.156857	466.223122	1322.264994	-503.418855	455.235306	1376.407453	-335.231848	435.414974	1238.027501	-327.962021	584.445623	1072.253890	-138.006303	715.989243	886.336936	-139.850883	564.105981	1062.199853	-538.527210	699.444079	879.517156	-511.585192	-8.402567	1104.898140	-325.403039	129.671898	1091.570540	-468.869010	119.780562	1108.385941	-184.323185	180.768282	1061.223221	-442.537167	173.332620	1091.385504	-217.603744	4.785545	1125.681928	-290.039921	12.703488	1127.003527	-376.033883	101.943395	1032.771963	-140.218615	84.509191	998.777641	-498.664216	193.091304	1013.343390	-139.778521	280.037764	1004.264807	-151.368069	353.626112	965.912676	-129.015823	287.852286	1026.545815	-181.253129	476.276566	880.047380	-162.302637	468.556160	858.058248	-274.082558	457.779784	768.376346	-144.420628	439.086217	683.187540	-161.438323	385.285623	614.789066	-152.641993	450.837982	678.368504	-197.837574	324.186689	510.185950	-155.920647	331.710636	530.219600	-236.209082	248.070287	461.838327	-196.243955	533.503498	453.415625	-195.613048	425.824044	436.609336	-136.408566	451.231419	450.539316	-244.291442	188.969807	904.255093	-516.922345	256.491134	850.128831	-517.046208	284.402091	869.535235	-503.406765	286.838624	765.747963	-516.163416	341.126072	678.525748	-494.824583	349.687054	649.240855	-391.567881	291.760165	585.604459	-511.849710	262.937512	505.711356	-494.278792	194.365994	447.242321	-493.719310	282.516373	497.398349	-459.802264	124.941302	372.456130	-473.395623	143.082415	360.303779	-398.738878	48.345904	365.011271	-431.130396	264.469053	176.698910	-445.751561	165.265679	225.279163	-503.681466	-129.126920	869.447178	-314.148318	32.790811	82.325313	-515.345142	33.093663	81.906673	-115.211148	
2	0.0100	460.034889	1317.217280	-153.185236	466.170788	1322.241562	-503.418182	455.175982	1376.409029	-335.277741	435.389502	1238.062263	-327.950490	584.461859	1072.292664	-138.056165	715.983595	886.341064	-139.875910	564.087084	1062.173342	-538.559608	699.447703	879.507729	-511.610783	-8.336852	1104.787242	-325.469592	129.734166	1091.528277	-468.842493	119.770149	1108.367225	-184.298159	180.824042	1061.257308	-442.489004	173.362723	1091.376883	-217.568392	4.807549	1125.587617	-290.078400	12.737891	1126.934324	-376.062298	101.986575	1032.744526	-140.215129	84.578783	998.704111	-498.647211	193.139408	1013.328900	-139.766730	280.077563	1004.249274	-151.356885	353.658458	965.905458	-128.980601	287.898442	1026.546032	-181.226747	476.335250	880.050470	-162.246019	468.633073	858.069782	-274.060425	457.870516	768.370293	-144.384766	439.171621	683.199134	-161.394060	385.365937	614.799820	-152.618250	450.921994	678.364613	-197.805990	324.288078	510.170275	-155.923023	331.806657	530.208743	-236.193353	248.100291	461.957692	-196.160914	533.570205	453.322334	-195.612870	425.892571	436.547771	-136.409916	451.314001	450.489760	-244.290860	188.989163	904.208824	-516.922895	256.524475	850.045053	-517.050842	284.429725	869.461634	-503.450468	286.842865	765.685127	-516.152377	341.139610	678.444838	-494.821837	349.718194	649.171590	-391.551801	291.740266	585.551047	-511.828194	262.861701	505.688978	-494.264985	194.264282	447.250169	-493.685263	282.418499	497.336230	-459.759557	124.777638	372.496572	-473.376205	142.966766	360.319967	-398.703804	48.173002	364.996855	-431.109502	264.432539	176.826367	-445.736638	165.202174	225.333526	-503.676361	-129.128908	869.450384	-314.144329	32.777291	82.332533	-515.334708	33.100866	81.892958	-115.194082	
3	0.0150	460.045385	1317.249298	-153.210600	466.128585	1322.207661	-503.414000	455.117457	1376.405467	-335.280321	435.385928	1238.089697	-327.880184	584.767159	1072.161240	-138.466600	715.993915	886.380006	-139.875678	564.216521	1062.245267	-538.214791	698.488187	878.816908	-510.886015	-8.267578	1104.638689	-325.379636	129.804934	1091.746787	-468.738109	119.491863	1108.014090	-185.053949	180.866674	1061.255108	-442.444855	173.375528	1091.371333	-217.530795	5.781715	1125.467069	-290.799280	13.122833	1127.456031	-374.876698	102.032880	1032.698904	-140.226048	84.615781	998.657860	-498.645531	193.033932	1013.271077	-139.836244	280.132383	1004.243844	-151.334300	353.684274	965.888808	-128.934518	288.372142	1025.925049	-181.629113	476.527779	879.982401	-162.292391	468.714403	858.061068	-274.014144	457.949051	768.354822	-144.351117	436.722450	681.231005	-161.786457	385.615961	614.661944	-152.617955	451.142271	678.122716	-197.882029	324.038282	510.935432	-155.344861	331.372948	530.172629	-236.614282	248.181921	461.977144	-196.166888	533.638406	453.229044	-195.616276	426.299997	436.329437	-136.537551	451.371139	450.439446	-244.282255	189.009939	904.140419	-516.928402	256.599338	849.406042	-516.438494	284.254449	869.204425	-503.258204	286.807978	765.523944	-516.165829	341.343895	678.307141	-494.710669	349.734153	649.100817	-391.533625	291.684950	585.482662	-511.794164	262.860362	505.616186	-494.540700	194.008941	447.448233	-493.732916	282.201164	497.312985	-459.271958	124.702425	372.459027	-473.392097	142.756949	360.344236	-398.669451	47.985115	364.942207	-431.074933	264.392867	176.991223	-445.762648	165.214212	225.365308	-503.995993	-129.083752	869.458382	-314.240585	32.791427	82.324022	-515.336103	33.413660	81.703711	-115.062243	
